# xmcd CD database file
#
# Track frame offsets:
#	150
#	15527
#	27170
#	39042
#	54655
#	67250
#	78192
#	93694
#	106610
#	126568
#	142443
#	164099
#	190842
#
# Disc length: 2742 seconds
#
# Revision: 0
# Processed by: cddbd v1.5.2PL0 Copyright (c) Steve Scherf et al.
# Submitted via: CDex 1.79
#
DISCID=b60ab40d
DTITLE=Gig Street - Nice and Streetly
DYEAR=1900
DGENRE=Jazz
TTITLE0=Jambalaya
TTITLE1=Via Con Me
TTITLE2=Key to the Highway
TTITLE3=Bye Bye Black Bird
TTITLE4=Nature Boy
TTITLE5=Makin' Whoopee
TTITLE6=Blue Monday
TTITLE7=Softly, as in a Morning Sunshine
TTITLE8=Black Trombone
TTITLE9=The Moral of Pretty Joey
TTITLE10=Cry me a River
TTITLE11=Just a Closer Walk with Thee
TTITLE12=Fool-Hearted Love
EXTD=
EXTT0=
EXTT1=
EXTT2=
EXTT3=
EXTT4=
EXTT5=
EXTT6=
EXTT7=
EXTT8=
EXTT9=
EXTT10=
EXTT11=
EXTT12=
PLAYORDER=
